<svg width="140" height="59" viewBox="0 0 140 59" fill="none" xmlns="http://www.w3.org/2000/svg">
<path d="M85.74 0.944L72.456 59H49.824L43.1 26.036L36.376 59H13.744L0.46 0.944H20.058L25.306 37.516L33.178 0.944H53.022L60.894 37.516L66.142 0.944H85.74Z" fill="black"/>
<path d="M139.746 20.87C139.746 24.5327 138.899 27.8673 137.204 30.874C135.509 33.826 132.995 36.1767 129.66 37.926C126.38 39.6753 122.389 40.55 117.688 40.55H110.472V59H92.268V0.944H117.688C124.795 0.944 130.234 2.748 134.006 6.356C137.833 9.964 139.746 14.802 139.746 20.87ZM115.638 26.2C119.41 26.2 121.296 24.4233 121.296 20.87C121.296 17.3167 119.41 15.54 115.638 15.54H110.472V26.2H115.638Z" fill="#6C63FF"/>
</svg>
